<svg xmlns="http://www.w3.org/2000/svg" viewBox="0 0 760 664" width="760" height="664" role="img">
  <title>Fifty simulated confidence intervals for a normal mean</title>
  <desc>Fifty horizontal intervals from independent samples of size eight, with the true mean drawn as a vertical line and the intervals that fail to cover it drawn in red.</desc>
  <rect x="0" y="0" width="760" height="664" fill="#ffffff"/>
  <text x="40" y="32" font-family="Helvetica, Arial, sans-serif" font-size="15" fill="#1f2933" text-anchor="start" font-weight="bold">Coverage is a property of the recipe, not of any one interval</text>
  <text x="40" y="54" font-family="Helvetica, Arial, sans-serif" font-size="11.5" fill="#5b6672" text-anchor="start">Each row is one fresh sample of size n = 8 from a normal with mean 10 and standard deviation 0.3.</text>
  <line x1="90" y1="556" x2="690" y2="556" stroke="#5b6672" stroke-width="1.2" stroke-linecap="round"/>
  <line x1="90" y1="86" x2="90" y2="556" stroke="#5b6672" stroke-width="1.2" stroke-linecap="round"/>
  <line x1="90" y1="556" x2="90" y2="560" stroke="#5b6672" stroke-width="1" stroke-linecap="round"/>
  <text x="90" y="573" font-family="Helvetica, Arial, sans-serif" font-size="11" fill="#5b6672" text-anchor="middle">9.4</text>
  <line x1="190" y1="556" x2="190" y2="560" stroke="#5b6672" stroke-width="1" stroke-linecap="round"/>
  <text x="190" y="573" font-family="Helvetica, Arial, sans-serif" font-size="11" fill="#5b6672" text-anchor="middle">9.6</text>
  <line x1="290" y1="556" x2="290" y2="560" stroke="#5b6672" stroke-width="1" stroke-linecap="round"/>
  <text x="290" y="573" font-family="Helvetica, Arial, sans-serif" font-size="11" fill="#5b6672" text-anchor="middle">9.8</text>
  <line x1="390" y1="556" x2="390" y2="560" stroke="#5b6672" stroke-width="1" stroke-linecap="round"/>
  <text x="390" y="573" font-family="Helvetica, Arial, sans-serif" font-size="11" fill="#5b6672" text-anchor="middle">10.0</text>
  <line x1="490" y1="556" x2="490" y2="560" stroke="#5b6672" stroke-width="1" stroke-linecap="round"/>
  <text x="490" y="573" font-family="Helvetica, Arial, sans-serif" font-size="11" fill="#5b6672" text-anchor="middle">10.2</text>
  <line x1="590" y1="556" x2="590" y2="560" stroke="#5b6672" stroke-width="1" stroke-linecap="round"/>
  <text x="590" y="573" font-family="Helvetica, Arial, sans-serif" font-size="11" fill="#5b6672" text-anchor="middle">10.4</text>
  <line x1="690" y1="556" x2="690" y2="560" stroke="#5b6672" stroke-width="1" stroke-linecap="round"/>
  <text x="690" y="573" font-family="Helvetica, Arial, sans-serif" font-size="11" fill="#5b6672" text-anchor="middle">10.6</text>
  <text x="390" y="594" font-family="Helvetica, Arial, sans-serif" font-size="12" fill="#1f2933" text-anchor="middle">value of mu</text>
  <line x1="390" y1="86" x2="390" y2="556" stroke="#1f2933" stroke-width="1.6" stroke-linecap="round"/>
  <text x="390" y="77" font-family="Helvetica, Arial, sans-serif" font-size="11.5" fill="#1f2933" text-anchor="middle">true mean 10</text>
  <line x1="252.956" y1="95.216" x2="391.526" y2="95.216" stroke="#5b6672" stroke-width="1.5" stroke-linecap="round"/>
  <line x1="252.956" y1="92.616" x2="252.956" y2="97.816" stroke="#5b6672" stroke-width="1.5" stroke-linecap="round"/>
  <line x1="391.526" y1="92.616" x2="391.526" y2="97.816" stroke="#5b6672" stroke-width="1.5" stroke-linecap="round"/>
  <polygon points="322.241,93.216 324.241,95.216 322.241,97.216 320.241,95.216" fill="#5b6672"/>
  <line x1="259.54" y1="104.431" x2="605.997" y2="104.431" stroke="#5b6672" stroke-width="1.5" stroke-linecap="round"/>
  <line x1="259.54" y1="101.831" x2="259.54" y2="107.031" stroke="#5b6672" stroke-width="1.5" stroke-linecap="round"/>
  <line x1="605.997" y1="101.831" x2="605.997" y2="107.031" stroke="#5b6672" stroke-width="1.5" stroke-linecap="round"/>
  <polygon points="432.768,102.431 434.768,104.431 432.768,106.431 430.768,104.431" fill="#5b6672"/>
  <line x1="352.177" y1="113.647" x2="525.055" y2="113.647" stroke="#5b6672" stroke-width="1.5" stroke-linecap="round"/>
  <line x1="352.177" y1="111.047" x2="352.177" y2="116.247" stroke="#5b6672" stroke-width="1.5" stroke-linecap="round"/>
  <line x1="525.055" y1="111.047" x2="525.055" y2="116.247" stroke="#5b6672" stroke-width="1.5" stroke-linecap="round"/>
  <polygon points="438.616,111.647 440.616,113.647 438.616,115.647 436.616,113.647" fill="#5b6672"/>
  <line x1="368.761" y1="122.863" x2="564.8" y2="122.863" stroke="#5b6672" stroke-width="1.5" stroke-linecap="round"/>
  <line x1="368.761" y1="120.263" x2="368.761" y2="125.463" stroke="#5b6672" stroke-width="1.5" stroke-linecap="round"/>
  <line x1="564.8" y1="120.263" x2="564.8" y2="125.463" stroke="#5b6672" stroke-width="1.5" stroke-linecap="round"/>
  <polygon points="466.78,120.863 468.78,122.863 466.78,124.863 464.78,122.863" fill="#5b6672"/>
  <line x1="240.537" y1="132.078" x2="456.415" y2="132.078" stroke="#5b6672" stroke-width="1.5" stroke-linecap="round"/>
  <line x1="240.537" y1="129.478" x2="240.537" y2="134.678" stroke="#5b6672" stroke-width="1.5" stroke-linecap="round"/>
  <line x1="456.415" y1="129.478" x2="456.415" y2="134.678" stroke="#5b6672" stroke-width="1.5" stroke-linecap="round"/>
  <polygon points="348.476,130.078 350.476,132.078 348.476,134.078 346.476,132.078" fill="#5b6672"/>
  <line x1="277.066" y1="141.294" x2="571.209" y2="141.294" stroke="#5b6672" stroke-width="1.5" stroke-linecap="round"/>
  <line x1="277.066" y1="138.694" x2="277.066" y2="143.894" stroke="#5b6672" stroke-width="1.5" stroke-linecap="round"/>
  <line x1="571.209" y1="138.694" x2="571.209" y2="143.894" stroke="#5b6672" stroke-width="1.5" stroke-linecap="round"/>
  <polygon points="424.137,139.294 426.137,141.294 424.137,143.294 422.137,141.294" fill="#5b6672"/>
  <line x1="244.288" y1="150.51" x2="423.428" y2="150.51" stroke="#5b6672" stroke-width="1.5" stroke-linecap="round"/>
  <line x1="244.288" y1="147.91" x2="244.288" y2="153.11" stroke="#5b6672" stroke-width="1.5" stroke-linecap="round"/>
  <line x1="423.428" y1="147.91" x2="423.428" y2="153.11" stroke="#5b6672" stroke-width="1.5" stroke-linecap="round"/>
  <polygon points="333.858,148.51 335.858,150.51 333.858,152.51 331.858,150.51" fill="#5b6672"/>
  <line x1="233.16" y1="159.725" x2="549.239" y2="159.725" stroke="#5b6672" stroke-width="1.5" stroke-linecap="round"/>
  <line x1="233.16" y1="157.125" x2="233.16" y2="162.325" stroke="#5b6672" stroke-width="1.5" stroke-linecap="round"/>
  <line x1="549.239" y1="157.125" x2="549.239" y2="162.325" stroke="#5b6672" stroke-width="1.5" stroke-linecap="round"/>
  <polygon points="391.199,157.725 393.199,159.725 391.199,161.725 389.199,159.725" fill="#5b6672"/>
  <line x1="342.52" y1="168.941" x2="517.549" y2="168.941" stroke="#5b6672" stroke-width="1.5" stroke-linecap="round"/>
  <line x1="342.52" y1="166.341" x2="342.52" y2="171.541" stroke="#5b6672" stroke-width="1.5" stroke-linecap="round"/>
  <line x1="517.549" y1="166.341" x2="517.549" y2="171.541" stroke="#5b6672" stroke-width="1.5" stroke-linecap="round"/>
  <polygon points="430.034,166.941 432.034,168.941 430.034,170.941 428.034,168.941" fill="#5b6672"/>
  <line x1="348.986" y1="178.157" x2="467.716" y2="178.157" stroke="#5b6672" stroke-width="1.5" stroke-linecap="round"/>
  <line x1="348.986" y1="175.557" x2="348.986" y2="180.757" stroke="#5b6672" stroke-width="1.5" stroke-linecap="round"/>
  <line x1="467.716" y1="175.557" x2="467.716" y2="180.757" stroke="#5b6672" stroke-width="1.5" stroke-linecap="round"/>
  <polygon points="408.351,176.157 410.351,178.157 408.351,180.157 406.351,178.157" fill="#5b6672"/>
  <line x1="308.99" y1="187.373" x2="480.286" y2="187.373" stroke="#5b6672" stroke-width="1.5" stroke-linecap="round"/>
  <line x1="308.99" y1="184.773" x2="308.99" y2="189.973" stroke="#5b6672" stroke-width="1.5" stroke-linecap="round"/>
  <line x1="480.286" y1="184.773" x2="480.286" y2="189.973" stroke="#5b6672" stroke-width="1.5" stroke-linecap="round"/>
  <polygon points="394.638,185.373 396.638,187.373 394.638,189.373 392.638,187.373" fill="#5b6672"/>
  <line x1="220.173" y1="196.588" x2="453.978" y2="196.588" stroke="#5b6672" stroke-width="1.5" stroke-linecap="round"/>
  <line x1="220.173" y1="193.988" x2="220.173" y2="199.188" stroke="#5b6672" stroke-width="1.5" stroke-linecap="round"/>
  <line x1="453.978" y1="193.988" x2="453.978" y2="199.188" stroke="#5b6672" stroke-width="1.5" stroke-linecap="round"/>
  <polygon points="337.076,194.588 339.076,196.588 337.076,198.588 335.076,196.588" fill="#5b6672"/>
  <line x1="214.125" y1="205.804" x2="455.121" y2="205.804" stroke="#5b6672" stroke-width="1.5" stroke-linecap="round"/>
  <line x1="214.125" y1="203.204" x2="214.125" y2="208.404" stroke="#5b6672" stroke-width="1.5" stroke-linecap="round"/>
  <line x1="455.121" y1="203.204" x2="455.121" y2="208.404" stroke="#5b6672" stroke-width="1.5" stroke-linecap="round"/>
  <polygon points="334.623,203.804 336.623,205.804 334.623,207.804 332.623,205.804" fill="#5b6672"/>
  <line x1="202.256" y1="215.02" x2="572.599" y2="215.02" stroke="#5b6672" stroke-width="1.5" stroke-linecap="round"/>
  <line x1="202.256" y1="212.42" x2="202.256" y2="217.62" stroke="#5b6672" stroke-width="1.5" stroke-linecap="round"/>
  <line x1="572.599" y1="212.42" x2="572.599" y2="217.62" stroke="#5b6672" stroke-width="1.5" stroke-linecap="round"/>
  <polygon points="387.428,213.02 389.428,215.02 387.428,217.02 385.428,215.02" fill="#5b6672"/>
  <line x1="320.456" y1="224.235" x2="492.318" y2="224.235" stroke="#5b6672" stroke-width="1.5" stroke-linecap="round"/>
  <line x1="320.456" y1="221.635" x2="320.456" y2="226.835" stroke="#5b6672" stroke-width="1.5" stroke-linecap="round"/>
  <line x1="492.318" y1="221.635" x2="492.318" y2="226.835" stroke="#5b6672" stroke-width="1.5" stroke-linecap="round"/>
  <polygon points="406.387,222.235 408.387,224.235 406.387,226.235 404.387,224.235" fill="#5b6672"/>
  <line x1="329.427" y1="233.451" x2="467.193" y2="233.451" stroke="#5b6672" stroke-width="1.5" stroke-linecap="round"/>
  <line x1="329.427" y1="230.851" x2="329.427" y2="236.051" stroke="#5b6672" stroke-width="1.5" stroke-linecap="round"/>
  <line x1="467.193" y1="230.851" x2="467.193" y2="236.051" stroke="#5b6672" stroke-width="1.5" stroke-linecap="round"/>
  <polygon points="398.31,231.451 400.31,233.451 398.31,235.451 396.31,233.451" fill="#5b6672"/>
  <line x1="276.487" y1="242.667" x2="654.889" y2="242.667" stroke="#5b6672" stroke-width="1.5" stroke-linecap="round"/>
  <line x1="276.487" y1="240.067" x2="276.487" y2="245.267" stroke="#5b6672" stroke-width="1.5" stroke-linecap="round"/>
  <line x1="654.889" y1="240.067" x2="654.889" y2="245.267" stroke="#5b6672" stroke-width="1.5" stroke-linecap="round"/>
  <polygon points="465.688,240.667 467.688,242.667 465.688,244.667 463.688,242.667" fill="#5b6672"/>
  <line x1="317.233" y1="251.882" x2="568.903" y2="251.882" stroke="#5b6672" stroke-width="1.5" stroke-linecap="round"/>
  <line x1="317.233" y1="249.282" x2="317.233" y2="254.482" stroke="#5b6672" stroke-width="1.5" stroke-linecap="round"/>
  <line x1="568.903" y1="249.282" x2="568.903" y2="254.482" stroke="#5b6672" stroke-width="1.5" stroke-linecap="round"/>
  <polygon points="443.068,249.882 445.068,251.882 443.068,253.882 441.068,251.882" fill="#5b6672"/>
  <line x1="268.034" y1="261.098" x2="457.313" y2="261.098" stroke="#5b6672" stroke-width="1.5" stroke-linecap="round"/>
  <line x1="268.034" y1="258.498" x2="268.034" y2="263.698" stroke="#5b6672" stroke-width="1.5" stroke-linecap="round"/>
  <line x1="457.313" y1="258.498" x2="457.313" y2="263.698" stroke="#5b6672" stroke-width="1.5" stroke-linecap="round"/>
  <polygon points="362.673,259.098 364.673,261.098 362.673,263.098 360.673,261.098" fill="#5b6672"/>
  <line x1="258.632" y1="270.314" x2="451.147" y2="270.314" stroke="#5b6672" stroke-width="1.5" stroke-linecap="round"/>
  <line x1="258.632" y1="267.714" x2="258.632" y2="272.914" stroke="#5b6672" stroke-width="1.5" stroke-linecap="round"/>
  <line x1="451.147" y1="267.714" x2="451.147" y2="272.914" stroke="#5b6672" stroke-width="1.5" stroke-linecap="round"/>
  <polygon points="354.89,268.314 356.89,270.314 354.89,272.314 352.89,270.314" fill="#5b6672"/>
  <line x1="286.799" y1="279.529" x2="546.004" y2="279.529" stroke="#5b6672" stroke-width="1.5" stroke-linecap="round"/>
  <line x1="286.799" y1="276.929" x2="286.799" y2="282.129" stroke="#5b6672" stroke-width="1.5" stroke-linecap="round"/>
  <line x1="546.004" y1="276.929" x2="546.004" y2="282.129" stroke="#5b6672" stroke-width="1.5" stroke-linecap="round"/>
  <polygon points="416.402,277.529 418.402,279.529 416.402,281.529 414.402,279.529" fill="#5b6672"/>
  <line x1="168.669" y1="288.745" x2="468.398" y2="288.745" stroke="#5b6672" stroke-width="1.5" stroke-linecap="round"/>
  <line x1="168.669" y1="286.145" x2="168.669" y2="291.345" stroke="#5b6672" stroke-width="1.5" stroke-linecap="round"/>
  <line x1="468.398" y1="286.145" x2="468.398" y2="291.345" stroke="#5b6672" stroke-width="1.5" stroke-linecap="round"/>
  <polygon points="318.534,286.745 320.534,288.745 318.534,290.745 316.534,288.745" fill="#5b6672"/>
  <line x1="233.657" y1="297.961" x2="499.509" y2="297.961" stroke="#5b6672" stroke-width="1.5" stroke-linecap="round"/>
  <line x1="233.657" y1="295.361" x2="233.657" y2="300.561" stroke="#5b6672" stroke-width="1.5" stroke-linecap="round"/>
  <line x1="499.509" y1="295.361" x2="499.509" y2="300.561" stroke="#5b6672" stroke-width="1.5" stroke-linecap="round"/>
  <polygon points="366.583,295.961 368.583,297.961 366.583,299.961 364.583,297.961" fill="#5b6672"/>
  <line x1="287.514" y1="307.176" x2="491.703" y2="307.176" stroke="#5b6672" stroke-width="1.5" stroke-linecap="round"/>
  <line x1="287.514" y1="304.576" x2="287.514" y2="309.776" stroke="#5b6672" stroke-width="1.5" stroke-linecap="round"/>
  <line x1="491.703" y1="304.576" x2="491.703" y2="309.776" stroke="#5b6672" stroke-width="1.5" stroke-linecap="round"/>
  <polygon points="389.608,305.176 391.608,307.176 389.608,309.176 387.608,307.176" fill="#5b6672"/>
  <line x1="196.414" y1="316.392" x2="453.878" y2="316.392" stroke="#5b6672" stroke-width="1.5" stroke-linecap="round"/>
  <line x1="196.414" y1="313.792" x2="196.414" y2="318.992" stroke="#5b6672" stroke-width="1.5" stroke-linecap="round"/>
  <line x1="453.878" y1="313.792" x2="453.878" y2="318.992" stroke="#5b6672" stroke-width="1.5" stroke-linecap="round"/>
  <polygon points="325.146,314.392 327.146,316.392 325.146,318.392 323.146,316.392" fill="#5b6672"/>
  <line x1="254.852" y1="325.608" x2="580.814" y2="325.608" stroke="#5b6672" stroke-width="1.5" stroke-linecap="round"/>
  <line x1="254.852" y1="323.008" x2="254.852" y2="328.208" stroke="#5b6672" stroke-width="1.5" stroke-linecap="round"/>
  <line x1="580.814" y1="323.008" x2="580.814" y2="328.208" stroke="#5b6672" stroke-width="1.5" stroke-linecap="round"/>
  <polygon points="417.833,323.608 419.833,325.608 417.833,327.608 415.833,325.608" fill="#5b6672"/>
  <line x1="219.369" y1="334.824" x2="505.88" y2="334.824" stroke="#5b6672" stroke-width="1.5" stroke-linecap="round"/>
  <line x1="219.369" y1="332.224" x2="219.369" y2="337.424" stroke="#5b6672" stroke-width="1.5" stroke-linecap="round"/>
  <line x1="505.88" y1="332.224" x2="505.88" y2="337.424" stroke="#5b6672" stroke-width="1.5" stroke-linecap="round"/>
  <polygon points="362.624,332.824 364.624,334.824 362.624,336.824 360.624,334.824" fill="#5b6672"/>
  <line x1="242.857" y1="344.039" x2="511.643" y2="344.039" stroke="#5b6672" stroke-width="1.5" stroke-linecap="round"/>
  <line x1="242.857" y1="341.439" x2="242.857" y2="346.639" stroke="#5b6672" stroke-width="1.5" stroke-linecap="round"/>
  <line x1="511.643" y1="341.439" x2="511.643" y2="346.639" stroke="#5b6672" stroke-width="1.5" stroke-linecap="round"/>
  <polygon points="377.25,342.039 379.25,344.039 377.25,346.039 375.25,344.039" fill="#5b6672"/>
  <line x1="260.923" y1="353.255" x2="628.229" y2="353.255" stroke="#5b6672" stroke-width="1.5" stroke-linecap="round"/>
  <line x1="260.923" y1="350.655" x2="260.923" y2="355.855" stroke="#5b6672" stroke-width="1.5" stroke-linecap="round"/>
  <line x1="628.229" y1="350.655" x2="628.229" y2="355.855" stroke="#5b6672" stroke-width="1.5" stroke-linecap="round"/>
  <polygon points="444.576,351.255 446.576,353.255 444.576,355.255 442.576,353.255" fill="#5b6672"/>
  <line x1="190.812" y1="362.471" x2="402.797" y2="362.471" stroke="#5b6672" stroke-width="1.5" stroke-linecap="round"/>
  <line x1="190.812" y1="359.871" x2="190.812" y2="365.071" stroke="#5b6672" stroke-width="1.5" stroke-linecap="round"/>
  <line x1="402.797" y1="359.871" x2="402.797" y2="365.071" stroke="#5b6672" stroke-width="1.5" stroke-linecap="round"/>
  <polygon points="296.804,360.471 298.804,362.471 296.804,364.471 294.804,362.471" fill="#5b6672"/>
  <line x1="231.697" y1="371.686" x2="344.441" y2="371.686" stroke="#a33a3a" stroke-width="1.5" stroke-linecap="round"/>
  <line x1="231.697" y1="369.086" x2="231.697" y2="374.286" stroke="#a33a3a" stroke-width="1.5" stroke-linecap="round"/>
  <line x1="344.441" y1="369.086" x2="344.441" y2="374.286" stroke="#a33a3a" stroke-width="1.5" stroke-linecap="round"/>
  <polygon points="288.069,369.686 290.069,371.686 288.069,373.686 286.069,371.686" fill="#a33a3a"/>
  <line x1="345.297" y1="380.902" x2="544.034" y2="380.902" stroke="#5b6672" stroke-width="1.5" stroke-linecap="round"/>
  <line x1="345.297" y1="378.302" x2="345.297" y2="383.502" stroke="#5b6672" stroke-width="1.5" stroke-linecap="round"/>
  <line x1="544.034" y1="378.302" x2="544.034" y2="383.502" stroke="#5b6672" stroke-width="1.5" stroke-linecap="round"/>
  <polygon points="444.665,378.902 446.665,380.902 444.665,382.902 442.665,380.902" fill="#5b6672"/>
  <line x1="278.779" y1="390.118" x2="512.374" y2="390.118" stroke="#5b6672" stroke-width="1.5" stroke-linecap="round"/>
  <line x1="278.779" y1="387.518" x2="278.779" y2="392.718" stroke="#5b6672" stroke-width="1.5" stroke-linecap="round"/>
  <line x1="512.374" y1="387.518" x2="512.374" y2="392.718" stroke="#5b6672" stroke-width="1.5" stroke-linecap="round"/>
  <polygon points="395.576,388.118 397.576,390.118 395.576,392.118 393.576,390.118" fill="#5b6672"/>
  <line x1="304.387" y1="399.333" x2="649.299" y2="399.333" stroke="#5b6672" stroke-width="1.5" stroke-linecap="round"/>
  <line x1="304.387" y1="396.733" x2="304.387" y2="401.933" stroke="#5b6672" stroke-width="1.5" stroke-linecap="round"/>
  <line x1="649.299" y1="396.733" x2="649.299" y2="401.933" stroke="#5b6672" stroke-width="1.5" stroke-linecap="round"/>
  <polygon points="476.843,397.333 478.843,399.333 476.843,401.333 474.843,399.333" fill="#5b6672"/>
  <line x1="272.783" y1="408.549" x2="505.142" y2="408.549" stroke="#5b6672" stroke-width="1.5" stroke-linecap="round"/>
  <line x1="272.783" y1="405.949" x2="272.783" y2="411.149" stroke="#5b6672" stroke-width="1.5" stroke-linecap="round"/>
  <line x1="505.142" y1="405.949" x2="505.142" y2="411.149" stroke="#5b6672" stroke-width="1.5" stroke-linecap="round"/>
  <polygon points="388.962,406.549 390.962,408.549 388.962,410.549 386.962,408.549" fill="#5b6672"/>
  <line x1="251.79" y1="417.765" x2="493.816" y2="417.765" stroke="#5b6672" stroke-width="1.5" stroke-linecap="round"/>
  <line x1="251.79" y1="415.165" x2="251.79" y2="420.365" stroke="#5b6672" stroke-width="1.5" stroke-linecap="round"/>
  <line x1="493.816" y1="415.165" x2="493.816" y2="420.365" stroke="#5b6672" stroke-width="1.5" stroke-linecap="round"/>
  <polygon points="372.803,415.765 374.803,417.765 372.803,419.765 370.803,417.765" fill="#5b6672"/>
  <line x1="300.533" y1="426.98" x2="489.075" y2="426.98" stroke="#5b6672" stroke-width="1.5" stroke-linecap="round"/>
  <line x1="300.533" y1="424.38" x2="300.533" y2="429.58" stroke="#5b6672" stroke-width="1.5" stroke-linecap="round"/>
  <line x1="489.075" y1="424.38" x2="489.075" y2="429.58" stroke="#5b6672" stroke-width="1.5" stroke-linecap="round"/>
  <polygon points="394.804,424.98 396.804,426.98 394.804,428.98 392.804,426.98" fill="#5b6672"/>
  <line x1="289.798" y1="436.196" x2="539.158" y2="436.196" stroke="#5b6672" stroke-width="1.5" stroke-linecap="round"/>
  <line x1="289.798" y1="433.596" x2="289.798" y2="438.796" stroke="#5b6672" stroke-width="1.5" stroke-linecap="round"/>
  <line x1="539.158" y1="433.596" x2="539.158" y2="438.796" stroke="#5b6672" stroke-width="1.5" stroke-linecap="round"/>
  <polygon points="414.478,434.196 416.478,436.196 414.478,438.196 412.478,436.196" fill="#5b6672"/>
  <line x1="242.539" y1="445.412" x2="385.009" y2="445.412" stroke="#a33a3a" stroke-width="1.5" stroke-linecap="round"/>
  <line x1="242.539" y1="442.812" x2="242.539" y2="448.012" stroke="#a33a3a" stroke-width="1.5" stroke-linecap="round"/>
  <line x1="385.009" y1="442.812" x2="385.009" y2="448.012" stroke="#a33a3a" stroke-width="1.5" stroke-linecap="round"/>
  <polygon points="313.774,443.412 315.774,445.412 313.774,447.412 311.774,445.412" fill="#a33a3a"/>
  <line x1="241.588" y1="454.627" x2="502.928" y2="454.627" stroke="#5b6672" stroke-width="1.5" stroke-linecap="round"/>
  <line x1="241.588" y1="452.027" x2="241.588" y2="457.227" stroke="#5b6672" stroke-width="1.5" stroke-linecap="round"/>
  <line x1="502.928" y1="452.027" x2="502.928" y2="457.227" stroke="#5b6672" stroke-width="1.5" stroke-linecap="round"/>
  <polygon points="372.258,452.627 374.258,454.627 372.258,456.627 370.258,454.627" fill="#5b6672"/>
  <line x1="288.377" y1="463.843" x2="482.167" y2="463.843" stroke="#5b6672" stroke-width="1.5" stroke-linecap="round"/>
  <line x1="288.377" y1="461.243" x2="288.377" y2="466.443" stroke="#5b6672" stroke-width="1.5" stroke-linecap="round"/>
  <line x1="482.167" y1="461.243" x2="482.167" y2="466.443" stroke="#5b6672" stroke-width="1.5" stroke-linecap="round"/>
  <polygon points="385.272,461.843 387.272,463.843 385.272,465.843 383.272,463.843" fill="#5b6672"/>
  <line x1="281.849" y1="473.059" x2="619.849" y2="473.059" stroke="#5b6672" stroke-width="1.5" stroke-linecap="round"/>
  <line x1="281.849" y1="470.459" x2="281.849" y2="475.659" stroke="#5b6672" stroke-width="1.5" stroke-linecap="round"/>
  <line x1="619.849" y1="470.459" x2="619.849" y2="475.659" stroke="#5b6672" stroke-width="1.5" stroke-linecap="round"/>
  <polygon points="450.849,471.059 452.849,473.059 450.849,475.059 448.849,473.059" fill="#5b6672"/>
  <line x1="420.435" y1="482.275" x2="529.457" y2="482.275" stroke="#a33a3a" stroke-width="1.5" stroke-linecap="round"/>
  <line x1="420.435" y1="479.675" x2="420.435" y2="484.875" stroke="#a33a3a" stroke-width="1.5" stroke-linecap="round"/>
  <line x1="529.457" y1="479.675" x2="529.457" y2="484.875" stroke="#a33a3a" stroke-width="1.5" stroke-linecap="round"/>
  <polygon points="474.946,480.275 476.946,482.275 474.946,484.275 472.946,482.275" fill="#a33a3a"/>
  <line x1="281.132" y1="491.49" x2="603.008" y2="491.49" stroke="#5b6672" stroke-width="1.5" stroke-linecap="round"/>
  <line x1="281.132" y1="488.89" x2="281.132" y2="494.09" stroke="#5b6672" stroke-width="1.5" stroke-linecap="round"/>
  <line x1="603.008" y1="488.89" x2="603.008" y2="494.09" stroke="#5b6672" stroke-width="1.5" stroke-linecap="round"/>
  <polygon points="442.07,489.49 444.07,491.49 442.07,493.49 440.07,491.49" fill="#5b6672"/>
  <line x1="295.735" y1="500.706" x2="547.18" y2="500.706" stroke="#5b6672" stroke-width="1.5" stroke-linecap="round"/>
  <line x1="295.735" y1="498.106" x2="295.735" y2="503.306" stroke="#5b6672" stroke-width="1.5" stroke-linecap="round"/>
  <line x1="547.18" y1="498.106" x2="547.18" y2="503.306" stroke="#5b6672" stroke-width="1.5" stroke-linecap="round"/>
  <polygon points="421.458,498.706 423.458,500.706 421.458,502.706 419.458,500.706" fill="#5b6672"/>
  <line x1="267.756" y1="509.922" x2="464.911" y2="509.922" stroke="#5b6672" stroke-width="1.5" stroke-linecap="round"/>
  <line x1="267.756" y1="507.322" x2="267.756" y2="512.522" stroke="#5b6672" stroke-width="1.5" stroke-linecap="round"/>
  <line x1="464.911" y1="507.322" x2="464.911" y2="512.522" stroke="#5b6672" stroke-width="1.5" stroke-linecap="round"/>
  <polygon points="366.333,507.922 368.333,509.922 366.333,511.922 364.333,509.922" fill="#5b6672"/>
  <line x1="307.881" y1="519.137" x2="479.869" y2="519.137" stroke="#5b6672" stroke-width="1.5" stroke-linecap="round"/>
  <line x1="307.881" y1="516.537" x2="307.881" y2="521.737" stroke="#5b6672" stroke-width="1.5" stroke-linecap="round"/>
  <line x1="479.869" y1="516.537" x2="479.869" y2="521.737" stroke="#5b6672" stroke-width="1.5" stroke-linecap="round"/>
  <polygon points="393.875,517.137 395.875,519.137 393.875,521.137 391.875,519.137" fill="#5b6672"/>
  <line x1="228.944" y1="528.353" x2="486.339" y2="528.353" stroke="#5b6672" stroke-width="1.5" stroke-linecap="round"/>
  <line x1="228.944" y1="525.753" x2="228.944" y2="530.953" stroke="#5b6672" stroke-width="1.5" stroke-linecap="round"/>
  <line x1="486.339" y1="525.753" x2="486.339" y2="530.953" stroke="#5b6672" stroke-width="1.5" stroke-linecap="round"/>
  <polygon points="357.642,526.353 359.642,528.353 357.642,530.353 355.642,528.353" fill="#5b6672"/>
  <line x1="250.667" y1="537.569" x2="515.37" y2="537.569" stroke="#5b6672" stroke-width="1.5" stroke-linecap="round"/>
  <line x1="250.667" y1="534.969" x2="250.667" y2="540.169" stroke="#5b6672" stroke-width="1.5" stroke-linecap="round"/>
  <line x1="515.37" y1="534.969" x2="515.37" y2="540.169" stroke="#5b6672" stroke-width="1.5" stroke-linecap="round"/>
  <polygon points="383.019,535.569 385.019,537.569 383.019,539.569 381.019,537.569" fill="#5b6672"/>
  <line x1="303.124" y1="546.784" x2="562.863" y2="546.784" stroke="#5b6672" stroke-width="1.5" stroke-linecap="round"/>
  <line x1="303.124" y1="544.184" x2="303.124" y2="549.384" stroke="#5b6672" stroke-width="1.5" stroke-linecap="round"/>
  <line x1="562.863" y1="544.184" x2="562.863" y2="549.384" stroke="#5b6672" stroke-width="1.5" stroke-linecap="round"/>
  <polygon points="432.994,544.784 434.994,546.784 432.994,548.784 430.994,546.784" fill="#5b6672"/>
  <text x="90" y="620" font-family="Helvetica, Arial, sans-serif" font-size="11.5" fill="#5b6672" text-anchor="start">Intervals drawn in red missed: 3 of the 50 rows here, against the 2.5 misses a 95 percent recipe averages.</text>
  <text x="90" y="640" font-family="Helvetica, Arial, sans-serif" font-size="11.5" fill="#5b6672" text-anchor="start">Rerun the simulation and a different set of rows turns red. The recipe carries the 95 percent; a single row cannot.</text>
</svg>
